<svg viewBox="0 0 12 12" fill="none" xmlns="http://www.w3.org/2000/svg">
<path d="M9.70801 4.16113C10.0051 4.1851 10.231 4.43071 10.2373 4.72168V4.73145L10.2363 4.76953V4.77539L10.2344 4.79102V4.79883C10.234 4.80378 10.233 4.8109 10.2324 4.81836C10.2305 4.84196 10.2274 4.88283 10.2236 4.92871C10.2159 5.02371 10.2043 5.16201 10.1904 5.33008C10.1625 5.66831 10.1239 6.13466 10.0801 6.64453C9.99262 7.66246 9.88433 8.86659 9.80469 9.58398C9.75554 10.0264 9.58606 10.4348 9.26367 10.7344C8.93977 11.035 8.51771 11.1744 8.06445 11.1826C6.75377 11.2062 5.44019 11.2074 4.12793 11.1797C3.68077 11.1704 3.26675 11.0261 2.95117 10.7256C2.67751 10.4647 2.51575 10.1223 2.44727 9.74902L2.42383 9.58691C2.34369 8.8633 2.23564 7.65885 2.14844 6.6416C2.10476 6.13211 2.0659 5.66667 2.03809 5.3291C2.0242 5.16059 2.01355 5.02234 2.00586 4.92773C2.00355 4.89935 2.0007 4.87413 1.99902 4.85352L1.99316 4.78027C1.96813 4.46441 2.20414 4.18681 2.52051 4.16113L2.63672 4.16309C2.90213 4.19545 3.11792 4.4109 3.14062 4.6875V4.69824L3.1416 4.70801L3.14355 4.72559C3.14558 4.75069 3.14856 4.78846 3.15234 4.83496C3.16001 4.92929 3.17074 5.06655 3.18457 5.23438C3.21232 5.57111 3.25138 6.03602 3.29492 6.54395C3.38226 7.56268 3.48907 8.75276 3.56738 9.45996C3.59273 9.68844 3.66844 9.82021 3.74414 9.89258C3.8174 9.96228 3.94071 10.0259 4.15234 10.0303C5.44762 10.0576 6.7461 10.0556 8.04395 10.0322C8.27543 10.028 8.40593 9.96164 8.48145 9.8916C8.55825 9.82014 8.63614 9.69077 8.66211 9.45703L8.72461 8.84961C8.79158 8.17121 8.86794 7.31007 8.93359 6.5459C8.97726 6.03768 9.01608 5.57262 9.04395 5.23535C9.05789 5.06652 9.06944 4.92956 9.07715 4.83496C9.08102 4.78741 9.08381 4.75189 9.08594 4.72559C9.08626 4.72152 9.08665 4.71696 9.08691 4.71289C9.08712 4.70957 9.08748 4.7025 9.08789 4.69727L9.08887 4.69043V4.6875C9.08934 4.68368 9.09082 4.67871 9.09082 4.67871C9.12162 4.36801 9.39513 4.13628 9.70801 4.16113Z" fill="currentColor"/>
<path fill-rule="evenodd" clip-rule="evenodd" d="M7.17285 0.799805C7.72167 0.799838 8.2041 1.16942 8.34668 1.70215C8.34803 1.70706 8.35251 1.72261 8.35547 1.7373L8.47656 2.3457C8.49986 2.4603 8.60044 2.54329 8.7168 2.54492H10.3545L10.4697 2.55664C10.7318 2.61026 10.9285 2.8425 10.9287 3.12012L10.917 3.23633C10.8631 3.49777 10.6318 3.69508 10.3545 3.69531H1.875C1.59754 3.69522 1.36545 3.49797 1.31152 3.23633L1.2998 3.12012C1.3 2.80286 1.55756 2.54502 1.875 2.54492H3.51172C3.62838 2.54342 3.72964 2.4602 3.75293 2.3457L3.87402 1.7373C3.877 1.72251 3.88151 1.70691 3.88281 1.70215C4.02534 1.16957 4.50711 0.800099 5.05566 0.799805H7.17285ZM5.05664 1.95117C5.02801 1.95119 5.00265 1.96924 4.99414 1.99609L4.88477 2.54492H7.34375L7.23438 1.99707C7.2302 1.98331 7.22169 1.97191 7.21094 1.96387L7.17285 1.95117H5.05664Z" fill="currentColor"/>
</svg>
