<svg viewBox="0 0 80 80" fill="none" xmlns="http://www.w3.org/2000/svg">
<path d="M38.8428 10.0024C54.3992 10.0024 67.0077 22.611 67.0078 38.1675C67.0078 45.2486 64.3891 51.7102 60.0732 56.6606L59.3359 57.5063L59.2129 57.6479L59.3447 57.7798L68.8691 67.2827C69.4936 67.9065 69.4951 68.9211 68.873 69.5464C68.2881 70.1319 67.3587 70.1698 66.7295 69.6587L66.6084 69.5493L56.9951 59.9565L56.8711 59.8335L56.7324 59.939L55.8994 60.5747C51.1639 64.185 45.2573 66.3325 38.8428 66.3325C23.2863 66.3324 10.6777 53.7239 10.6777 38.1675C10.6778 22.6111 23.2864 10.0025 38.8428 10.0024ZM38.8428 13.1978C25.0537 13.1978 13.8731 24.3784 13.873 38.1675V38.1704L13.8809 38.8101V38.812C14.2229 52.3033 25.2692 63.1371 38.8428 63.1372H38.8457L39.4854 63.1294H39.4873C52.7644 62.7928 63.4681 52.0891 63.8047 38.812V38.8101L63.8125 38.1704V38.1675C63.8124 24.5939 52.9786 13.5476 39.4873 13.2056H39.4854L38.8457 13.1978H38.8428Z" fill="currentColor"/>
</svg>
