<svg viewBox="0 0 16 16" fill="none" xmlns="http://www.w3.org/2000/svg">
<path fill-rule="evenodd" clip-rule="evenodd" d="M7.9721 0.648438C8.84907 0.648599 9.70877 1.13681 10.3873 1.61607C11.0735 2.10089 11.7611 2.71924 12.1998 3.07254C12.2119 3.0823 12.2241 3.09326 12.2355 3.10379C12.5042 3.35299 12.7469 3.56882 12.9676 3.76339C13.1858 3.95567 13.3912 4.13499 13.5725 4.30246C13.9361 4.63812 14.2553 4.97157 14.4966 5.39286C14.9782 6.23397 15.067 7.29251 15.067 9.14286C15.0669 10.538 14.9867 11.6452 14.7623 12.5089C14.5331 13.3905 14.1409 14.0685 13.4933 14.5335C12.8675 14.9827 12.0844 15.1716 11.2054 15.2623C10.325 15.353 9.24904 15.3527 7.99107 15.3527C6.73316 15.3527 5.65712 15.353 4.77678 15.2623C3.89784 15.1716 3.11464 14.9825 2.48884 14.5335C1.84124 14.0685 1.44902 13.3904 1.21986 12.5089C0.995411 11.6452 0.91521 10.538 0.915176 9.14286C0.915176 7.29201 1.00344 6.23297 1.48549 5.39174C1.72699 4.97045 2.04703 4.63816 2.41071 4.30246C2.59211 4.13502 2.79639 3.95564 3.01451 3.76339C3.23539 3.56871 3.47775 3.35316 3.74665 3.10379C3.75832 3.09298 3.77108 3.08252 3.78348 3.07254C4.20838 2.73046 4.89769 2.10309 5.56919 1.62165C6.23944 1.14117 7.09218 0.648563 7.9721 0.648438ZM6.05245 10.0714C5.67384 10.0714 5.36731 10.3781 5.36719 10.7567C5.36719 11.1354 5.67376 11.4419 6.05245 11.442H9.92857C10.3073 11.442 10.615 11.1354 10.615 10.7567C10.6148 10.3781 10.3072 10.0714 9.92857 10.0714H6.05245Z" fill="currentColor"/>
</svg>
