<svg viewBox="0 0 16 16" fill="none" xmlns="http://www.w3.org/2000/svg">
<path fill-rule="evenodd" clip-rule="evenodd" d="M6.72461 1.09961C7.0739 1.11005 7.35307 1.32508 7.49316 1.5791C7.65712 1.87752 7.66942 2.28567 7.43066 2.61719C6.92507 3.31786 6.62515 4.17834 6.625 5.10938L6.63086 5.3291C6.74557 7.58168 8.6095 9.37207 10.8906 9.37207H10.8945L11.2314 9.35938L11.2354 9.3584C12.0289 9.29492 12.7601 9.01409 13.3711 8.57617L13.3721 8.57715L13.3818 8.57031L13.3965 8.56055L13.4873 8.50391L13.4922 8.50098L13.5059 8.49316L13.5078 8.49219L13.5068 8.49121H13.5088C13.8143 8.33483 14.1598 8.36338 14.4209 8.50684C14.7123 8.66757 14.9514 9.01088 14.8916 9.43262L14.875 9.51758C14.152 12.6014 11.3844 14.9003 8.0791 14.9004C4.22491 14.9002 1.10026 11.7748 1.09961 7.9209C1.09995 4.61642 3.39632 1.84834 6.47949 1.125L6.49121 1.12109L6.55566 1.11035L6.72461 1.09961ZM5.61621 2.81836C3.71984 3.73508 2.40946 5.67409 2.40918 7.9209C2.40983 11.0514 4.94841 13.5877 8.0791 13.5879H8.08301L8.50488 13.5723H8.50879C10.5726 13.4173 12.3206 12.1537 13.1777 10.3779L13.293 10.1396L13.0479 10.2422C12.3833 10.5228 11.6559 10.6835 10.8906 10.6836C7.90857 10.6836 5.47297 8.34126 5.32324 5.39648L5.31641 5.10938C5.31651 4.34359 5.47183 3.61217 5.75195 2.94727L5.85547 2.70312L5.61621 2.81836Z" fill="currentColor"/>
<path d="M10.8916 3.33008C10.9143 3.24216 11.0398 3.24217 11.0625 3.33008C11.2601 4.09593 11.8583 4.69415 12.624 4.8916C12.7118 4.91423 12.7117 5.03875 12.624 5.06152C11.8583 5.25899 11.26 5.85807 11.0625 6.62402C11.0398 6.71193 10.9143 6.71194 10.8916 6.62402C10.6941 5.8581 10.096 5.25904 9.33008 5.06152C9.24222 5.03887 9.24222 4.91426 9.33008 4.8916C10.0958 4.69405 10.6941 4.09584 10.8916 3.33008Z" fill="currentColor"/>
<path d="M13 2C13 2.45908 13.5281 3 14 3C13.5097 3 13 3.53492 13 4C13 3.53212 12.4583 3 12 3C12.4763 3 13 2.45908 13 2Z" fill="currentColor"/>
</svg>
